<?xml version="1.0" encoding="UTF-8" standalone="no"?>
<svg
   xmlns:dc="http://purl.org/dc/elements/1.1/"
   xmlns:cc="http://creativecommons.org/ns#"
   xmlns:rdf="http://www.w3.org/1999/02/22-rdf-syntax-ns#"
   xmlns:svg="http://www.w3.org/2000/svg"
   xmlns="http://www.w3.org/2000/svg"
   xmlns:sodipodi="http://sodipodi.sourceforge.net/DTD/sodipodi-0.dtd"
   xmlns:inkscape="http://www.inkscape.org/namespaces/inkscape"
   width="7.9192305"
   height="9.7776489"
   viewBox="0 0 7.9192305 9.7776489"
   version="1.1"
   id="svg4"
   sodipodi:docname="icon.svg"
   inkscape:version="0.92.0 r15299">
  <metadata
     id="metadata10">
    <rdf:RDF>
      <cc:Work
         rdf:about="">
        <dc:format>image/svg+xml</dc:format>
        <dc:type
           rdf:resource="http://purl.org/dc/dcmitype/StillImage" />
        <dc:title></dc:title>
      </cc:Work>
    </rdf:RDF>
  </metadata>
  <defs
     id="defs8" />
  <sodipodi:namedview
     pagecolor="#ffffff"
     bordercolor="#666666"
     borderopacity="1"
     objecttolerance="10"
     gridtolerance="10"
     guidetolerance="10"
     inkscape:pageopacity="0"
     inkscape:pageshadow="2"
     inkscape:window-width="1857"
     inkscape:window-height="1057"
     id="namedview6"
     showgrid="false"
     inkscape:zoom="45.254834"
     inkscape:cx="0.52049803"
     inkscape:cy="7.2349518"
     inkscape:window-x="55"
     inkscape:window-y="-8"
     inkscape:window-maximized="1"
     inkscape:current-layer="svg4"
     fit-margin-top="0"
     fit-margin-left="0"
     fit-margin-right="0"
     fit-margin-bottom="0" />
  <path
     inkscape:connector-curvature="0"
     style="display:inline;fill:#000000;stroke:none;stroke-width:0.01371168px;stroke-linecap:butt;stroke-linejoin:miter;stroke-opacity:1"
     d="M 5.3931744,0 C 4.9699175,1.4239083 4.248419,2.5060724 2.1845087,3.9185949 2.429752,3.3926538 2.5782145,3.200781 2.4549661,2.5660386 0.26180159,4.290295 -1.5148672,6.5476985 1.9554544,9.5638949 2.7125933,8.2848116 3.4286989,7.195425 1.4475598,7.2306598 1.472666,6.5102143 1.4768011,6.1852069 2.0991323,5.5022921 2.3464772,5.7229192 2.8554141,5.7396807 3.1407103,5.6826865 2.6784314,5.6083118 2.4255059,5.4014604 2.3523972,5.2144537 2.9852872,4.9711276 3.6628661,4.3336238 3.9294808,4.045266 4.9054091,2.9897459 5.2628887,2.1639211 5.6751478,1.0913372 6.2992714,2.1785087 6.4397764,3.7331367 6.1396311,5.2368167 5.8209693,5.1811249 5.4994663,5.2913316 5.1854645,5.4959185 5.4870116,5.4497083 5.7271399,5.342842 6.0214222,5.5374848 5.7628261,5.815591 5.5745353,6.1164544 5.4812296,6.4932044 5.2295708,6.4337112 4.637088,6.3765323 4.208749,6.6350616 4.488583,6.5461295 4.9904328,6.5089756 5.2742961,6.8141437 5.0009405,7.1979619 4.8983765,7.6518596 4.8440919,8.07219 3.461208,6.2324148 3.0843004,8.8713363 2.5855485,9.7117801 c -0.058968,0.034115 -0.1209758,0.04418 -0.1842235,0.038857 0.055596,0.013154 0.1113684,0.021362 0.1680211,0.022982 C 5.7673553,9.8649247 7.4609795,8.4042343 7.9192306,5.4456553 7.5795404,5.8846685 7.2806272,6.2466818 6.8189216,6.3334323 7.6333845,3.6975217 7.4699084,2.1564275 5.3931744,3.38e-6 Z"
     id="path4496" />
  <path
     style="display:inline;fill:#000000;stroke:none;stroke-width:0.0140771px;stroke-linecap:butt;stroke-linejoin:miter;stroke-opacity:1"
     d="M 5.685419,2.200846 C 5.3994476,2.9769737 5.1276235,3.7004322 4.4826206,4.5951995 l -2.81e-5,5.51e-5 C 4.1344402,5.061226 3.8611527,5.3858198 3.6380893,5.7908726 3.3642933,6.2880507 3.2350745,6.852398 3.1406111,7.3614197 3.607359,6.5138731 3.6557397,6.4202424 4.185699,5.7748032 4.6081622,5.2788422 5.0116955,4.7482987 5.1174506,4.5240755 5.7057054,3.2768479 5.7293494,2.8327212 5.685419,2.2008492 Z"
     id="path4532"
     inkscape:connector-curvature="0"
     sodipodi:nodetypes="cccsccsc" />
</svg>
